<svg width="46" height="46" viewBox="0 0 46 46" fill="none" xmlns="http://www.w3.org/2000/svg">
<rect width="46" height="46" rx="23" fill="#0F2F51" fill-opacity="0.05"/>
<mask id="mask0_2113_14719" style="mask-type:luminance" maskUnits="userSpaceOnUse" x="13" y="13" width="20" height="20">
<path d="M32.1998 13.7998H13.7998V32.1998H32.1998V13.7998Z" fill="white"/>
</mask>
<g mask="url(#mask0_2113_14719)">
<path d="M18.0834 19.7178H14.3895C14.2256 19.7178 14.0928 19.8507 14.0928 20.0145V31.8812C14.0928 32.0452 14.2256 32.178 14.3895 32.178H18.0834C18.2473 32.178 18.3802 32.0452 18.3802 31.8812V20.0145C18.3802 19.8507 18.2473 19.7178 18.0834 19.7178Z" fill="#0F2F51"/>
<path d="M16.2373 13.8193C14.8932 13.8193 13.7998 14.9116 13.7998 16.2541C13.7998 17.5973 14.8932 18.6899 16.2373 18.6899C17.5802 18.6899 18.6728 17.5972 18.6728 16.2541C18.6728 14.9116 17.5802 13.8193 16.2373 13.8193Z" fill="#0F2F51"/>
<path d="M27.4771 19.4229C25.9935 19.4229 24.8968 20.0606 24.2316 20.7853V20.0146C24.2316 19.8507 24.0988 19.7178 23.9348 19.7178H20.3974C20.2334 19.7178 20.1006 19.8507 20.1006 20.0146V31.8812C20.1006 32.0453 20.2334 32.178 20.3974 32.178H24.0831C24.2471 32.178 24.3799 32.0453 24.3799 31.8812V26.01C24.3799 24.0315 24.9173 23.2607 26.2965 23.2607C27.7985 23.2607 27.9179 24.4964 27.9179 26.1118V31.8814C27.9179 32.0452 28.0507 32.1781 28.2146 32.1781H31.9017C32.0658 32.1781 32.1985 32.0452 32.1985 31.8814V25.3722C32.1985 22.4303 31.6376 19.4229 27.4771 19.4229Z" fill="#0F2F51"/>
</g>
</svg>
