<svg width="12" height="12" viewBox="0 0 12 12" fill="none" xmlns="http://www.w3.org/2000/svg">
<path d="M11.3989 5.63714L8.09554 2.33381C7.99874 2.237 7.86741 2.18262 7.73054 2.18262C7.59361 2.18262 7.46234 2.237 7.36554 2.33381C7.26874 2.43061 7.21434 2.56191 7.21434 2.69881C7.21434 2.83571 7.26874 2.96701 7.36554 3.06381L9.78754 5.48581H0.966195C0.829341 5.48581 0.698095 5.54017 0.601329 5.63694C0.504559 5.73371 0.450195 5.86495 0.450195 6.00181C0.450195 6.13866 0.504559 6.26991 0.601329 6.36667C0.698095 6.46345 0.829341 6.51781 0.966195 6.51781H9.78754L7.36554 8.93979C7.26874 9.03659 7.21434 9.16793 7.21434 9.30479C7.21434 9.44173 7.26874 9.57299 7.36554 9.66979C7.46234 9.76659 7.59361 9.82099 7.73054 9.82099C7.86741 9.82099 7.99874 9.76659 8.09554 9.66979L11.3982 6.36647C11.4949 6.26981 11.5493 6.1387 11.5495 6.00195C11.5496 5.86519 11.4954 5.73398 11.3989 5.63714Z" fill="#543D98"/>
</svg>
