<svg width="149" height="66" viewBox="0 0 149 66" fill="none" xmlns="http://www.w3.org/2000/svg">
<path d="M13 35.6047V14.5829C13 13.6436 13.7652 12.8771 14.7396 12.8771C15.7139 12.8771 16.4454 13.6423 16.4454 14.5829V35.6047C16.4454 36.5791 15.6802 37.3456 14.7396 37.3456C13.7989 37.3456 13 36.5804 13 35.6047Z" fill="white"/>
<path d="M43.1045 27.0081C43.1396 27.0783 43.1396 27.112 43.1396 27.1822V35.6398C43.1396 36.6141 42.3393 37.3807 41.4 37.3807C40.4608 37.3807 39.6942 36.6155 39.6942 35.6398V26.8691C39.6942 24.9204 38.0937 23.3536 36.1436 23.3536C34.1935 23.3536 32.5943 24.9204 32.5943 26.8691V35.6398C32.5943 36.6141 31.8291 37.3807 30.8885 37.3807C29.9478 37.3807 29.1489 36.6155 29.1489 35.6398V26.8691C29.1489 24.9204 27.5821 23.3536 25.6333 23.3536C23.6846 23.3536 22.0841 24.9204 22.0841 26.8691V35.6398C22.0841 36.6141 21.3189 37.3807 20.3782 37.3807C19.4376 37.3807 18.6387 36.6155 18.6387 35.6398V26.8691C18.6387 23.0405 21.771 19.9082 25.6347 19.9082C27.7224 19.9082 29.6023 20.8137 30.8898 22.309C32.1773 20.8124 34.0572 19.9082 36.1449 19.9082C40.0087 19.9082 43.1409 23.0405 43.1409 26.8691C43.1409 26.9393 43.1409 26.973 43.1059 27.0081H43.1045Z" fill="white"/>
<path d="M48.6719 35.6735V44.3389C48.6719 45.2782 47.9068 46.0447 46.9661 46.0447C46.0255 46.0447 45.2266 45.2796 45.2266 44.3389V28.7126C45.2266 23.9096 49.1591 19.977 53.9621 19.977C58.7652 19.977 62.6977 23.9096 62.6977 28.7126C62.6977 33.5156 58.8003 37.4482 53.9621 37.4482C51.9783 37.4482 50.1335 36.7869 48.6719 35.6735ZM48.6719 28.7126V28.7477C48.6719 31.6357 51.039 34.0028 53.9621 34.0028C56.8853 34.0028 59.2523 31.6357 59.2523 28.7126C59.2523 25.7895 56.8853 23.4224 53.9621 23.4224C51.039 23.4224 48.6719 25.7895 48.6719 28.7126Z" fill="white"/>
<path d="M78.7411 21.5789V30.3496C78.706 34.2133 75.5737 37.3456 71.6762 37.3456C67.7788 37.3456 64.6802 34.2133 64.6465 30.3496V21.5789C64.6465 20.6396 65.4117 19.8731 66.3523 19.8731C67.2929 19.8731 68.0919 20.6383 68.0919 21.5789V30.2794C68.0919 32.2632 69.6924 33.8989 71.6762 33.8989C73.6601 33.8989 75.2957 32.2632 75.2957 30.2794V21.5789C75.2957 20.6396 76.0609 19.8731 77.0353 19.8731C78.0096 19.8731 78.7411 20.6383 78.7411 21.5789Z" fill="white"/>
<path d="M80.8994 35.6047V12.9472C80.8994 12.008 81.6646 11.2414 82.6403 11.2414C83.616 11.2414 84.3461 12.0066 84.3461 12.9472V35.6047C84.3461 36.5791 83.581 37.3456 82.6403 37.3456C81.6997 37.3456 80.8994 36.5804 80.8994 35.6047Z" fill="white"/>
<path d="M98.8231 32.1242C98.8231 33.1337 98.0916 37.3443 93.0106 37.3443C90.5747 37.3443 87.7204 36.2646 86.7811 33.8287C86.7109 33.6897 86.7109 33.5156 86.7109 33.3415C86.7109 32.4711 87.5112 31.6357 88.4856 31.6357C88.9728 31.6357 89.495 31.88 89.8081 32.297C90.6084 33.4103 91.4438 33.8624 92.9404 33.9326C95.1685 33.9326 95.3413 32.4009 95.3763 32.1229C95.3763 30.9393 94.1577 30.4522 92.4883 30.2781C90.3655 30.0338 86.7109 28.8853 86.7109 25.058C86.7109 21.7166 89.5301 19.7327 92.5922 19.7327C93.7407 19.7327 94.8892 20.0107 95.9337 20.533C96.2819 20.7071 98.8217 21.8556 98.8217 23.9784C98.7515 24.8489 97.9864 25.6491 97.0471 25.6491C96.2117 25.6491 95.8635 25.0918 95.4465 24.4656C94.9593 23.4912 93.4978 23.1781 92.5234 23.1781C91.236 23.1781 90.1226 23.9096 90.1226 25.0918C90.1226 27.5979 93.8811 25.9622 96.7704 28.189C98.0228 29.1984 98.8244 30.6951 98.8244 32.1215L98.8231 32.1242Z" fill="white"/>
<path d="M118.139 28.5736C118.139 29.5129 117.374 30.2794 116.398 30.2794H104.391C105.123 32.3671 107.072 33.8638 109.404 33.8638C110.204 33.8638 111.632 33.7936 113.301 32.7153C114.101 32.1931 115.181 32.6802 115.598 33.5156C116.015 34.3861 115.563 35.2903 114.763 35.8125C112.466 37.3443 110.691 37.3092 109.404 37.3092C104.565 37.3092 100.668 33.3766 100.668 28.5736C100.668 23.7706 104.565 19.838 109.404 19.838C113.614 19.838 118.139 22.9001 118.139 28.5736ZM104.391 26.834H114.449C113.718 24.3981 111.491 23.2847 109.404 23.2847C107.072 23.2847 105.123 24.7814 104.391 26.834Z" fill="white"/>
<path d="M77.807 52.8653C77.3616 52.8653 76.9824 52.4861 76.9824 52.0408V42.1324C76.9824 41.6709 77.3616 41.2917 77.807 41.2917H80.197C81.0702 41.2917 81.8947 41.4725 82.6694 41.8031C83.4116 42.1324 84.0702 42.6115 84.5979 43.2215C85.1256 43.8153 85.521 44.5076 85.7679 45.2823C86.0149 46.0731 86.0972 46.8977 85.9987 47.7546C85.8341 49.1555 85.1579 50.4416 84.1026 51.3984C83.0473 52.3377 81.6626 52.8653 80.2456 52.8653H77.8056H77.807ZM80.247 51.2175C82.3401 51.2175 84.1039 49.6507 84.3523 47.5738C84.5007 46.3376 84.1539 45.1837 83.3792 44.3092C82.5884 43.4361 81.4508 42.9408 80.197 42.9408H78.6302V51.2162H80.2456L80.247 51.2175Z" fill="white"/>
<path d="M87.2694 42.7114C87.121 42.5629 87.0225 42.3484 87.0225 42.1338C87.0225 41.9192 87.121 41.7046 87.2694 41.5562C87.4179 41.4077 87.6325 41.3092 87.847 41.3092C88.0616 41.3092 88.2762 41.4077 88.4246 41.5562C88.5731 41.7046 88.6554 41.9192 88.6554 42.1338C88.6554 42.3484 88.5731 42.5629 88.4246 42.7114C88.2762 42.8598 88.0616 42.9422 87.847 42.9422C87.6325 42.9422 87.4179 42.8598 87.2694 42.7114ZM87.0225 52.0421V45.3983C87.0225 44.953 87.3855 44.59 87.847 44.59C88.3086 44.59 88.6554 44.953 88.6554 45.3983V52.0421C88.6554 52.5037 88.2924 52.8667 87.847 52.8667C87.4017 52.8667 87.0225 52.5037 87.0225 52.0421Z" fill="white"/>
<path d="M97.8682 52.8491C97.8682 55.1245 96.0058 56.9868 93.7305 56.9868C92.1313 56.9868 90.7129 56.0961 90.0044 54.6629C89.806 54.2513 89.972 53.7722 90.3836 53.5752C90.779 53.3768 91.2743 53.5428 91.4713 53.9382C91.9005 54.8114 92.7574 55.3566 93.7305 55.3566C95.0989 55.3566 96.2028 54.2527 96.2366 52.9004V51.9935C95.5281 52.5212 94.6711 52.8505 93.7305 52.8505C91.4389 52.8505 89.5928 50.9881 89.5928 48.7128C89.5928 46.4375 91.4389 44.5751 93.7305 44.5751C96.022 44.5751 97.8682 46.4213 97.8682 48.7128V52.8505V52.8491ZM96.2366 48.7115C96.2366 47.3268 95.0989 46.2054 93.7305 46.2054C92.362 46.2054 91.2244 47.3268 91.2244 48.7115C91.2244 50.0961 92.3458 51.2176 93.7305 51.2176C95.1151 51.2176 96.2366 50.0799 96.2366 48.7115Z" fill="white"/>
<path d="M99.0565 42.7114C98.9081 42.5629 98.8096 42.3484 98.8096 42.1338C98.8096 41.9192 98.9081 41.7046 99.0565 41.5562C99.205 41.4077 99.4196 41.3092 99.6341 41.3092C99.8487 41.3092 100.063 41.4077 100.212 41.5562C100.36 41.7046 100.443 41.9192 100.443 42.1338C100.443 42.3484 100.36 42.5629 100.212 42.7114C100.063 42.8598 99.8487 42.9422 99.6341 42.9422C99.4196 42.9422 99.205 42.8598 99.0565 42.7114ZM98.8096 52.0421V45.3983C98.8096 44.953 99.1726 44.59 99.6341 44.59C100.096 44.59 100.443 44.953 100.443 45.3983V52.0421C100.443 52.5037 100.079 52.8667 99.6341 52.8667C99.1888 52.8667 98.8096 52.5037 98.8096 52.0421Z" fill="white"/>
<path d="M107.069 45.3983C107.069 45.8437 106.706 46.2229 106.244 46.2229H105.074V52.0421C105.074 52.4875 104.711 52.8667 104.25 52.8667C103.788 52.8667 103.441 52.4875 103.441 52.0421V46.2229H102.254C101.808 46.2229 101.445 45.8437 101.445 45.3983C101.445 44.953 101.808 44.59 102.254 44.59H103.441V41.293C103.441 40.8477 103.804 40.4846 104.25 40.4846C104.695 40.4846 105.074 40.8477 105.074 41.293V44.59H106.244C106.706 44.59 107.069 44.953 107.069 45.3983Z" fill="white"/>
<path d="M115.212 48.7776V52.0084C115.212 52.4861 114.865 52.833 114.388 52.833C114.058 52.833 113.597 52.4861 113.597 52.0084C112.888 52.6022 112.096 52.833 111.157 52.833C108.833 52.833 106.985 51.1015 106.985 48.7776C106.985 46.4537 108.832 44.6061 111.157 44.6061C113.482 44.6061 115.212 46.4523 115.212 48.7776ZM113.597 48.7776C113.597 47.3929 112.541 46.2229 111.157 46.2229C109.772 46.2229 108.602 47.3929 108.602 48.7776C108.602 50.1622 109.772 51.2175 111.157 51.2175C112.541 51.2175 113.597 50.1622 113.597 48.7776Z" fill="white"/>
<path d="M116.168 52.0421V41.3106C116.168 40.8652 116.531 40.5022 116.993 40.5022C117.454 40.5022 117.801 40.8652 117.801 41.3106V52.0421C117.801 52.5037 117.438 52.8667 116.993 52.8667C116.547 52.8667 116.168 52.5037 116.168 52.0421Z" fill="white"/>
<path d="M112.004 7.80416C110.972 7.77582 109.941 7.8271 108.909 7.86489C108.215 7.89053 107.536 7.81495 106.89 7.53965C106.154 7.22655 105.686 6.69888 105.622 5.87836C105.56 5.07134 105.899 4.44785 106.559 3.9971C107.16 3.58819 107.84 3.38576 108.551 3.28724C109.73 3.12395 110.914 2.99574 112.1 2.89183C113.238 2.79061 114.377 2.71099 115.519 2.65296C117.127 2.57199 118.736 2.5288 120.346 2.55984C121.949 2.59088 123.55 2.67455 125.141 2.88508C126.829 3.1091 128.484 3.45863 130.071 4.10101C132.064 4.90804 133.33 6.37094 134.044 8.36557C134.48 9.58285 134.771 10.8325 134.967 12.1078C135.362 14.6909 135.437 17.2928 135.395 19.8987C135.368 21.5884 135.276 23.2753 135.141 24.9595C135.021 26.4589 134.87 27.9555 134.663 29.4454C134.567 30.1377 134.364 30.799 133.968 31.386C133.388 32.2484 132.404 32.5709 131.488 32.1985C130.899 31.9583 130.569 31.4859 130.354 30.9124C130.065 30.1404 130.068 29.3388 130.11 28.5304C130.19 26.9582 130.192 25.386 130.149 23.8124C130.126 22.9528 130.09 22.0931 130.024 21.2361C129.828 18.6936 129.524 16.1686 128.662 13.7462C128.343 12.8514 127.936 12.0012 127.329 11.2603C126.713 10.51 125.91 10.0201 125.041 9.62874C123.741 9.04304 122.369 8.70295 120.974 8.44789C118.685 8.03088 116.372 7.86219 114.049 7.80281C113.368 7.78527 112.685 7.80011 112.003 7.80011L112.004 7.80416Z" fill="#543D98"/>
</svg>
