<svg width="20" height="15" viewBox="0 0 20 15" fill="none" xmlns="http://www.w3.org/2000/svg">
<path d="M10 0C10.0401 4.43083e-06 16.2652 0.00177835 17.8252 0.428711C18.6818 0.659437 19.3573 1.33465 19.5879 2.19141C20.0163 3.75643 20 7.01855 20 7.01855C20 7.06255 19.9968 10.2736 19.5879 11.8281C19.3572 12.6847 18.6819 13.3602 17.8252 13.5908C16.2624 14.0022 10.0187 14.0029 10 14.0029C10 14.0029 3.75653 14.0035 2.1748 13.5752C1.31818 13.3445 0.642938 12.6689 0.412109 11.8125C0.00268801 10.273 1.40394e-05 7.03976 0 7.00195C0 7.00195 0.000320835 3.75641 0.412109 2.19141C0.642669 1.33478 1.33466 0.642669 2.1748 0.412109C3.74028 0.000185631 10 0 10 0ZM8.75586 4.43555C8.42253 4.24356 8.00586 4.48447 8.00586 4.86914V9.13574C8.00596 9.52033 8.42257 9.7613 8.75586 9.56934L12.459 7.43555C12.7929 7.24321 12.7929 6.76167 12.459 6.56934L8.75586 4.43555Z" fill="#0F2F51"/>
</svg>
